<svg version="1.1" xmlns="http://www.w3.org/2000/svg" xmlns:xlink="http://www.w3.org/1999/xlink" width="50px" height="50px" viewBox="0,0,256,256"><g fill="#000000" fill-rule="nonzero" stroke="none" stroke-width="1" stroke-linecap="butt" stroke-linejoin="miter" stroke-miterlimit="10" stroke-dasharray="" stroke-dashoffset="0" font-family="none" font-weight="none" font-size="none" text-anchor="none" style="mix-blend-mode: normal"><g transform="scale(5.12,5.12)"><path d="M27,8c2.732,0 3.63,0.537 4.767,1.217c1.451,0.868 3.096,1.852 7.233,1.858v4.925c-3.281,0 -4.348,-0.669 -5.478,-1.378c-1.213,-0.76 -2.588,-1.622 -5.522,-1.622c-0.327,0 -0.669,0.04 -1,0.146v-5.146M25,33.61v2.39c0,3.8 -0.829,6 -5.064,6c-5.936,0 -5.936,-2.312 -5.936,-4c0,-1.337 0,-3 6,-3c2.364,0 3.947,-0.566 5,-1.39M27,6c-1.6,0 -2,1 -2,2v21c0,2.214 -1.033,4 -5,4c-5.661,0 -8,1.464 -8,5c0,2.383 0.489,6 7.936,6c6.919,0 7.064,-5.318 7.064,-8c0,-1.027 0,-3.903 0,-7v-12c0.005,-1.355 0.2,-2 1,-2c5.138,0 3.871,3 11,3c0,0 2,0 2,-1.699c0,-2.555 0,-4.363 0,-5.333c0,-1.533 -0.688,-1.893 -1.962,-1.893c-7.113,0.001 -5.364,-3.075 -12.038,-3.075z"></path></g></g></svg>