<svg version="1.1" xmlns="http://www.w3.org/2000/svg" xmlns:xlink="http://www.w3.org/1999/xlink" width="50px" height="50px" viewBox="0,0,256,256"><g fill="#131313" fill-rule="nonzero" stroke="none" stroke-width="1" stroke-linecap="butt" stroke-linejoin="miter" stroke-miterlimit="10" stroke-dasharray="" stroke-dashoffset="0" font-family="none" font-weight="none" font-size="none" text-anchor="none" style="mix-blend-mode: normal"><g transform="scale(5.12,5.12)"><path d="M3,7v32h23v-2h-21v-2.01953l12.80859,-10.12891c1.03516,0.90625 2.94922,2.57031 3.19141,2.78125c1.52344,1.32813 3.14063,1.66406 4.17578,1.66406c1.03516,0 2.65234,-0.33594 4.17969,-1.66406c1.18359,-1.03125 12.82422,-11.17969 15.64453,-13.63672v17.00391l2,2v-26zM5,9h40v2.34375c-1.03516,0.90234 -15.6875,13.67578 -16.95703,14.78125c-1.12109,0.97656 -2.26172,1.17188 -2.86719,1.17188c-0.60547,0 -1.74219,-0.19922 -2.86328,-1.17187c-1.30469,-1.13672 -16.87109,-14.70312 -17.3125,-15.08984zM5,13.6875c1.69531,1.48047 6.71875,5.85938 11.27344,9.82813l-11.27344,8.91406zM38.98828,29.98828c-0.40625,0.00391 -0.76953,0.25 -0.92578,0.625c-0.15234,0.37891 -0.0625,0.80859 0.23047,1.09375l5.29297,5.29297h-13.58594v2h13.58594l-5.29297,5.29297c-0.26172,0.25 -0.36719,0.625 -0.27344,0.97266c0.08984,0.35156 0.36328,0.625 0.71484,0.71484c0.34766,0.09375 0.72266,-0.01172 0.97266,-0.27344l7.70703,-7.70703l-7.70703,-7.70703c-0.1875,-0.19531 -0.44531,-0.30078 -0.71875,-0.30469z"></path></g></g></svg>