<svg version="1.1" xmlns="http://www.w3.org/2000/svg" xmlns:xlink="http://www.w3.org/1999/xlink" width="24px" height="24px" viewBox="0,0,256,256"><g fill="#000000" fill-rule="nonzero" stroke="none" stroke-width="1" stroke-linecap="butt" stroke-linejoin="miter" stroke-miterlimit="10" stroke-dasharray="" stroke-dashoffset="0" font-family="none" font-weight="none" font-size="none" text-anchor="none" style="mix-blend-mode: normal"><g transform="scale(10.66667,10.66667)"><path d="M18.49414,3.97656c-0.1675,-0.0025 -0.33437,0.03805 -0.48437,0.12305l-6.01953,3.25l-6.01953,-3.24023c-0.31,-0.16 -0.6807,-0.15852 -0.9707,0.02148l-0.0293,-0.04102l-3.5,2c-0.31,0.17 -0.5,0.51109 -0.5,0.87109v7.5c0,0.4 0.22984,0.74992 0.58984,0.91992l10,4.5c0.27,0.11 0.56008,0.11 0.83008,0l10,-4.5c0.35,-0.16 0.58984,-0.52016 0.58984,-0.91016v-7.5c0,-0.36 -0.19,-0.69133 -0.5,-0.86133l-3.5,-2c-0.15,-0.085 -0.31883,-0.13031 -0.48633,-0.13281zM5.48047,6.10938l6.01953,3.24023c0.29,0.15 0.64922,0.15 0.94922,0l6.02148,-3.23047l2.51953,1.44141v6.2793l-9,4.05078l-9,-4.05078v-6.26953l2.51953,-1.42969zM6,9v1.5h-1.5v2h1.5v1.5h2v-1.5h1.5v-2h-1.5v-1.5zM17.5,9v2h2v-2zM15.5,12v2h2v-2z"></path></g></g></svg>