<svg version="1.1" xmlns="http://www.w3.org/2000/svg" xmlns:xlink="http://www.w3.org/1999/xlink" width="48px" height="48px" viewBox="0,0,256,256"><g fill="none" fill-rule="nonzero" stroke="none" stroke-width="1" stroke-linecap="butt" stroke-linejoin="miter" stroke-miterlimit="10" stroke-dasharray="" stroke-dashoffset="0" font-family="none" font-weight="none" font-size="none" text-anchor="none" style="mix-blend-mode: normal"><g transform="scale(5.33333,5.33333)"><path d="M42,32.84v-16.895c0,-1.081 -0.581,-2.078 -1.521,-2.61l-15,-8.497c-0.917,-0.52 -2.04,-0.52 -2.957,0l-15,8.497c-0.941,0.532 -1.522,1.529 -1.522,2.61v16.895c0,1.081 0.581,2.078 1.521,2.61l15,8.497c0.917,0.52 2.04,0.52 2.957,0l15,-8.497c0.941,-0.532 1.522,-1.529 1.522,-2.61z" fill="#ed0c0c"></path><path d="M24,37.941c-0.682,0 -1.363,-0.172 -1.972,-0.517l-8.821,-4.997c-1.251,-0.708 -2.029,-2.042 -2.029,-3.48v-9.895c0,-1.438 0.777,-2.772 2.029,-3.48l8.821,-4.997c1.216,-0.689 2.726,-0.689 3.943,0l8.821,4.997c1.251,0.708 2.029,2.042 2.029,3.48v9.895c0,1.438 -0.777,2.772 -2.029,3.48l-8.821,4.997c-0.608,0.346 -1.289,0.517 -1.971,0.517zM24,12.057c-0.341,0 -0.682,0.087 -0.985,0.259l-8.822,4.997c-0.625,0.354 -1.014,1.021 -1.014,1.74v9.895c0,0.72 0.389,1.386 1.014,1.74l8.821,4.997c0.608,0.344 1.364,0.344 1.971,0l8.822,-4.997c0.625,-0.354 1.014,-1.021 1.014,-1.74v-9.895c0,-0.72 -0.389,-1.386 -1.014,-1.74l-8.821,-4.997c-0.304,-0.172 -0.645,-0.259 -0.986,-0.259z" fill="#ffffff"></path><path d="M20,18v12l10,-6z" fill="#ffffff"></path></g></g></svg>