<svg version="1.1" xmlns="http://www.w3.org/2000/svg" xmlns:xlink="http://www.w3.org/1999/xlink" width="48px" height="48px" viewBox="0,0,256,256"><g fill="#000000" fill-rule="nonzero" stroke="none" stroke-width="1" stroke-linecap="butt" stroke-linejoin="miter" stroke-miterlimit="10" stroke-dasharray="" stroke-dashoffset="0" font-family="none" font-weight="none" font-size="none" text-anchor="none" style="mix-blend-mode: normal"><g transform="scale(5.33333,5.33333)"><path d="M17.5,4c-2.29068,0 -4.13563,1.77481 -4.39844,4h-2.60156c-1.91495,0 -3.5,1.58505 -3.5,3.5v6c0,3.57194 2.92806,6.5 6.5,6.5h0.20898c1.34679,4.12234 4.89042,7.09101 9.29102,7.69531v3.30469h-3.5c-3.57194,0 -6.5,2.92806 -6.5,6.5v1c0.00008,0.82839 0.67161,1.49992 1.5,1.5h20c0.82839,-0.00008 1.49992,-0.67161 1.5,-1.5v-1c0,-3.57194 -2.92806,-6.5 -6.5,-6.5h-3.5v-3.30469c4.40059,-0.6043 7.94423,-3.57297 9.29102,-7.69531h0.20898c3.57194,0 6.5,-2.92806 6.5,-6.5v-6c0,-1.91495 -1.58505,-3.5 -3.5,-3.5h-2.60156c-0.26281,-2.22519 -2.10776,-4 -4.39844,-4zM17.5,7h14c0.8465,0 1.5,0.6535 1.5,1.5v0.75391c-0.02645,0.16103 -0.02645,0.3253 0,0.48633v10.75977c0,4.68184 -3.74425,8.43375 -8.41406,8.48242c-0.05724,-0.00328 -0.11463,-0.00328 -0.17188,0c-4.66981,-0.04867 -8.41406,-3.80058 -8.41406,-8.48242v-10.75391c0.02645,-0.16103 0.02645,-0.3253 0,-0.48633v-0.75977c0,-0.8465 0.6535,-1.5 1.5,-1.5zM10.5,11h2.5v9.5c0,0.14804 0.07839,0.27125 0.08398,0.41797c-1.73973,-0.21137 -3.08398,-1.61597 -3.08398,-3.41797v-6c0,-0.29504 0.20496,-0.5 0.5,-0.5zM36,11h2.5c0.29505,0 0.5,0.20496 0.5,0.5v6c0,1.802 -1.34425,3.2066 -3.08398,3.41797c0.00559,-0.14672 0.08398,-0.26993 0.08398,-0.41797zM19.5,38h10c1.77204,0 3.15195,1.30305 3.40039,3h-16.80078c0.24845,-1.69695 1.62835,-3 3.40039,-3z"></path></g></g></svg>